<svg width="328" height="82" viewBox="0 0 328 82" fill="none" xmlns="http://www.w3.org/2000/svg">
<g filter="url(#filter0_d)">
<rect x="15" y="15" width="294" height="48" rx="20" fill="#D5D9FF"/>
</g>
<g filter="url(#filter1_d)">
<rect x="15" y="15" width="294" height="48" rx="20" fill="#D5D9FF"/>
</g>
<rect x="20" y="19" width="284" height="39" rx="19.5" fill="white" stroke="black" stroke-width="2" stroke-linejoin="round"/>
<path d="M80.8716 25.2C81.0396 25.172 81.2263 25.1533 81.4316 25.144C81.6463 25.1253 81.861 25.1113 82.0756 25.102C82.2996 25.0833 82.5143 25.074 82.7196 25.074C82.925 25.0647 83.107 25.06 83.2656 25.06C84.0403 25.06 84.6843 25.1813 85.1976 25.424C85.7203 25.6573 86.1356 25.9933 86.4436 26.432C86.761 26.8613 86.985 27.3793 87.1156 27.986C87.2463 28.5927 87.3116 29.2693 87.3116 30.016C87.3116 30.6973 87.2463 31.3507 87.1156 31.976C86.9943 32.592 86.775 33.138 86.4576 33.614C86.1403 34.0807 85.711 34.454 85.1696 34.734C84.6283 35.014 83.947 35.154 83.1256 35.154C83.0043 35.154 82.841 35.1493 82.6356 35.14C82.4303 35.1307 82.2156 35.1167 81.9916 35.098C81.7676 35.0887 81.553 35.0747 81.3476 35.056C81.1423 35.0467 80.9836 35.0327 80.8716 35.014V25.2ZM83.4476 26.684C83.2983 26.684 83.1443 26.6887 82.9856 26.698C82.8363 26.698 82.7196 26.7073 82.6356 26.726V33.474C82.6636 33.4833 82.7103 33.4927 82.7756 33.502C82.8503 33.502 82.925 33.5067 82.9996 33.516C83.0836 33.516 83.1583 33.5207 83.2236 33.53C83.2983 33.53 83.3496 33.53 83.3776 33.53C83.7976 33.53 84.143 33.432 84.4136 33.236C84.6843 33.04 84.8943 32.7787 85.0436 32.452C85.2023 32.1253 85.3096 31.752 85.3656 31.332C85.431 30.9027 85.4636 30.4547 85.4636 29.988C85.4636 29.5587 85.4356 29.1433 85.3796 28.742C85.333 28.3407 85.235 27.9907 85.0856 27.692C84.9456 27.384 84.7403 27.1413 84.4696 26.964C84.2083 26.7773 83.8676 26.684 83.4476 26.684ZM90.8838 25.2H95.7838V26.824H92.6478V29.232H95.4898V30.856H92.6478V33.376H95.8398V35H90.8838V25.2ZM103.381 32.788H101.071L100.497 35H98.7475L101.589 25.13H102.975L105.831 35H103.983L103.381 32.788ZM101.449 31.332H103.073L102.513 29.05L102.289 27.51H102.233L101.995 29.064L101.449 31.332ZM111.109 30.184L110.465 28.462H110.395L110.619 30.156V35H108.953V25.13H110.311L113.125 30.058L113.727 31.752H113.811L113.587 30.086V25.2H115.253V35.07H113.895L111.109 30.184ZM127.908 32.788H125.598L125.024 35H123.274L126.116 25.13H127.502L130.358 35H128.51L127.908 32.788ZM125.976 31.332H127.6L127.04 29.05L126.816 27.51H126.76L126.522 29.064L125.976 31.332ZM139.08 27.468C139.08 27.7107 139.052 27.9533 138.996 28.196C138.949 28.4293 138.87 28.6533 138.758 28.868C138.646 29.0733 138.497 29.2553 138.31 29.414C138.133 29.5727 137.918 29.694 137.666 29.778V29.862C137.89 29.918 138.1 30.002 138.296 30.114C138.501 30.226 138.679 30.38 138.828 30.576C138.977 30.7627 139.094 30.996 139.178 31.276C139.271 31.5467 139.318 31.8687 139.318 32.242C139.318 32.746 139.229 33.1847 139.052 33.558C138.884 33.922 138.651 34.2207 138.352 34.454C138.063 34.6873 137.722 34.86 137.33 34.972C136.938 35.084 136.523 35.14 136.084 35.14C135.953 35.14 135.785 35.14 135.58 35.14C135.375 35.14 135.151 35.1307 134.908 35.112C134.675 35.1027 134.432 35.084 134.18 35.056C133.928 35.028 133.695 34.986 133.48 34.93V25.27C133.788 25.214 134.166 25.1673 134.614 25.13C135.071 25.0833 135.524 25.06 135.972 25.06C136.383 25.06 136.775 25.0927 137.148 25.158C137.531 25.2233 137.862 25.3447 138.142 25.522C138.431 25.6993 138.66 25.9467 138.828 26.264C138.996 26.572 139.08 26.9733 139.08 27.468ZM136.126 33.614C136.518 33.614 136.84 33.488 137.092 33.236C137.344 32.984 137.47 32.6153 137.47 32.13C137.47 31.822 137.428 31.5793 137.344 31.402C137.26 31.2153 137.148 31.0753 137.008 30.982C136.868 30.8793 136.705 30.814 136.518 30.786C136.341 30.758 136.154 30.744 135.958 30.744H135.244V33.53C135.319 33.558 135.445 33.5813 135.622 33.6C135.809 33.6093 135.977 33.614 136.126 33.614ZM135.65 29.358C135.753 29.358 135.869 29.3533 136 29.344C136.14 29.3253 136.252 29.3067 136.336 29.288C136.607 29.1853 136.835 29.0173 137.022 28.784C137.218 28.5507 137.316 28.2473 137.316 27.874C137.316 27.6313 137.283 27.426 137.218 27.258C137.153 27.09 137.064 26.9593 136.952 26.866C136.84 26.7633 136.705 26.6933 136.546 26.656C136.397 26.6093 136.233 26.586 136.056 26.586C135.673 26.586 135.403 26.6047 135.244 26.642V29.358H135.65ZM145.019 30.184L144.375 28.462H144.305L144.529 30.156V35H142.863V25.13H144.221L147.035 30.058L147.637 31.752H147.721L147.497 30.086V25.2H149.163V35.07H147.805L145.019 30.184ZM152.944 25.2H157.844V26.824H154.708V29.232H157.55V30.856H154.708V33.376H157.9V35H152.944V25.2ZM161.479 25.298C161.862 25.214 162.273 25.1533 162.711 25.116C163.15 25.0787 163.528 25.06 163.845 25.06C164.247 25.06 164.639 25.102 165.021 25.186C165.404 25.2607 165.74 25.4053 166.029 25.62C166.328 25.8253 166.566 26.11 166.743 26.474C166.93 26.8287 167.023 27.2813 167.023 27.832C167.023 28.6253 166.874 29.274 166.575 29.778C166.286 30.2727 165.885 30.6133 165.371 30.8L165.931 31.248L167.737 35H165.707L163.999 31.136L163.243 30.954V35H161.479V25.298ZM163.243 29.75H163.845C164.284 29.75 164.615 29.6193 164.839 29.358C165.063 29.0873 165.175 28.672 165.175 28.112C165.175 27.692 165.082 27.3513 164.895 27.09C164.709 26.8193 164.415 26.684 164.013 26.684C163.864 26.684 163.719 26.6887 163.579 26.698C163.439 26.7073 163.327 26.726 163.243 26.754V29.75ZM177.383 25.2H179.147V32.326C179.147 32.7553 179.11 33.1473 179.035 33.502C178.97 33.8473 178.858 34.146 178.699 34.398C178.541 34.6407 178.331 34.832 178.069 34.972C177.808 35.1027 177.481 35.168 177.089 35.168C176.819 35.168 176.548 35.14 176.277 35.084C176.016 35.028 175.778 34.9487 175.563 34.846L175.969 33.362C176.165 33.4833 176.394 33.544 176.655 33.544C176.982 33.544 177.183 33.4087 177.257 33.138C177.341 32.858 177.383 32.4613 177.383 31.948V25.2ZM187.324 25.2H188.99V31.556C188.99 32.8253 188.729 33.7447 188.206 34.314C187.693 34.8833 186.979 35.168 186.064 35.168C184.991 35.168 184.202 34.8927 183.698 34.342C183.204 33.782 182.956 32.9327 182.956 31.794V25.2H184.72V31.486C184.72 32.2513 184.823 32.788 185.028 33.096C185.234 33.3947 185.574 33.544 186.05 33.544C186.508 33.544 186.834 33.3853 187.03 33.068C187.226 32.7413 187.324 32.214 187.324 31.486V25.2ZM197.931 35H192.723V25.2H194.487V33.376H197.931V35ZM201.331 25.2H203.095V35H201.331V25.2ZM210.995 32.788H208.685L208.111 35H206.361L209.203 25.13H210.589L213.445 35H211.597L210.995 32.788ZM209.063 31.332H210.687L210.127 29.05L209.903 27.51H209.847L209.609 29.064L209.063 31.332ZM218.723 30.184L218.079 28.462H218.009L218.233 30.156V35H216.567V25.13H217.925L220.739 30.058L221.341 31.752H221.425L221.201 30.086V25.2H222.867V35.07H221.509L218.723 30.184ZM234.842 29.932H237.866V34.272C237.521 34.5987 237.115 34.8367 236.648 34.986C236.191 35.126 235.734 35.196 235.276 35.196C234.726 35.196 234.226 35.098 233.778 34.902C233.33 34.706 232.948 34.4027 232.63 33.992C232.322 33.572 232.08 33.0447 231.902 32.41C231.734 31.766 231.65 30.996 231.65 30.1C231.65 29.1667 231.753 28.378 231.958 27.734C232.164 27.09 232.434 26.5673 232.77 26.166C233.116 25.7553 233.512 25.4613 233.96 25.284C234.418 25.0973 234.898 25.004 235.402 25.004C235.85 25.004 236.256 25.046 236.62 25.13C236.994 25.2047 237.302 25.2933 237.544 25.396L237.18 26.922C236.994 26.838 236.774 26.768 236.522 26.712C236.28 26.656 235.981 26.628 235.626 26.628C235.3 26.628 235.001 26.6933 234.73 26.824C234.469 26.9547 234.245 27.16 234.058 27.44C233.881 27.72 233.741 28.084 233.638 28.532C233.545 28.9707 233.498 29.498 233.498 30.114C233.498 31.2993 233.676 32.172 234.03 32.732C234.394 33.292 234.87 33.572 235.458 33.572C235.645 33.572 235.822 33.544 235.99 33.488C236.168 33.432 236.322 33.3433 236.452 33.222V31.22L234.842 30.996V29.932ZM241.268 34.09C241.268 33.7447 241.356 33.4833 241.534 33.306C241.72 33.1287 241.963 33.04 242.262 33.04C242.588 33.04 242.84 33.1287 243.018 33.306C243.195 33.4833 243.284 33.7447 243.284 34.09C243.284 34.426 243.19 34.6873 243.004 34.874C242.826 35.0607 242.579 35.154 242.262 35.154C241.954 35.154 241.711 35.0607 241.534 34.874C241.356 34.6873 241.268 34.426 241.268 34.09Z" fill="black"/>
<path d="M134.34 55.08C133.985 54.632 133.686 54.1373 133.444 53.596C133.201 53.064 133 52.518 132.842 51.958C132.692 51.3887 132.58 50.8193 132.506 50.25C132.44 49.6713 132.408 49.1207 132.408 48.598C132.408 48.0847 132.44 47.5433 132.506 46.974C132.58 46.4047 132.692 45.8353 132.842 45.266C133 44.6873 133.201 44.1227 133.444 43.572C133.696 43.0213 134.004 42.508 134.368 42.032L135.488 42.662C135.236 43.1007 135.021 43.5673 134.844 44.062C134.666 44.5473 134.517 45.0467 134.396 45.56C134.284 46.0733 134.2 46.5913 134.144 47.114C134.097 47.6273 134.074 48.122 134.074 48.598C134.074 49.046 134.102 49.5267 134.158 50.04C134.214 50.5533 134.298 51.0713 134.41 51.594C134.522 52.1073 134.666 52.6067 134.844 53.092C135.03 53.5773 135.25 54.016 135.502 54.408L134.34 55.08ZM139.734 42.2H141.498V49.326C141.498 49.7553 141.461 50.1473 141.386 50.502C141.321 50.8473 141.209 51.146 141.05 51.398C140.891 51.6407 140.681 51.832 140.42 51.972C140.159 52.1027 139.832 52.168 139.44 52.168C139.169 52.168 138.899 52.14 138.628 52.084C138.367 52.028 138.129 51.9487 137.914 51.846L138.32 50.362C138.516 50.4833 138.745 50.544 139.006 50.544C139.333 50.544 139.533 50.4087 139.608 50.138C139.692 49.858 139.734 49.4613 139.734 48.948V42.2ZM149.675 42.2H151.341V48.556C151.341 49.8253 151.08 50.7447 150.557 51.314C150.044 51.8833 149.33 52.168 148.415 52.168C147.342 52.168 146.553 51.8927 146.049 51.342C145.554 50.782 145.307 49.9327 145.307 48.794V42.2H147.071V48.486C147.071 49.2513 147.174 49.788 147.379 50.096C147.584 50.3947 147.925 50.544 148.401 50.544C148.858 50.544 149.185 50.3853 149.381 50.068C149.577 49.7413 149.675 49.214 149.675 48.486V42.2ZM160.282 52H155.074V42.2H156.838V50.376H160.282V52ZM163.682 42.2H165.446V52H163.682V42.2ZM173.346 49.788H171.036L170.462 52H168.712L171.554 42.13H172.94L175.796 52H173.948L173.346 49.788ZM171.414 48.332H173.038L172.478 46.05L172.254 44.51H172.198L171.96 46.064L171.414 48.332ZM181.073 47.184L180.429 45.462H180.359L180.583 47.156V52H178.917V42.13H180.275L183.089 47.058L183.691 48.752H183.775L183.551 47.086V42.2H185.217V52.07H183.859L181.073 47.184ZM189.656 42.032C190.011 42.48 190.309 42.9747 190.552 43.516C190.795 44.048 190.991 44.5987 191.14 45.168C191.299 45.728 191.411 46.2973 191.476 46.876C191.551 47.4453 191.588 47.9913 191.588 48.514C191.588 49.0273 191.551 49.5687 191.476 50.138C191.411 50.7073 191.299 51.2813 191.14 51.86C190.991 52.4293 190.79 52.9893 190.538 53.54C190.295 54.0907 189.992 54.604 189.628 55.08L188.494 54.436C188.774 53.9693 189.003 53.4887 189.18 52.994C189.367 52.4993 189.511 52 189.614 51.496C189.726 50.992 189.805 50.488 189.852 49.984C189.899 49.48 189.922 48.99 189.922 48.514C189.922 48.066 189.894 47.5853 189.838 47.072C189.782 46.5493 189.693 46.0313 189.572 45.518C189.451 44.9953 189.301 44.4913 189.124 44.006C188.947 43.5207 188.737 43.0773 188.494 42.676L189.656 42.032Z" fill="black"/>
<defs>
<filter id="filter0_d" x="6" y="6" width="322" height="76" filterUnits="userSpaceOnUse" color-interpolation-filters="sRGB">
<feFlood flood-opacity="0" result="BackgroundImageFix"/>
<feColorMatrix in="SourceAlpha" type="matrix" values="0 0 0 0 0 0 0 0 0 0 0 0 0 0 0 0 0 0 127 0"/>
<feMorphology radius="1" operator="erode" in="SourceAlpha" result="effect1_dropShadow"/>
<feOffset dx="5" dy="5"/>
<feGaussianBlur stdDeviation="7.5"/>
<feColorMatrix type="matrix" values="0 0 0 0 0 0 0 0 0 0 0 0 0 0 0 0 0 0 0.21 0"/>
<feBlend mode="normal" in2="BackgroundImageFix" result="effect1_dropShadow"/>
<feBlend mode="normal" in="SourceGraphic" in2="effect1_dropShadow" result="shape"/>
</filter>
<filter id="filter1_d" x="0" y="0" width="314" height="68" filterUnits="userSpaceOnUse" color-interpolation-filters="sRGB">
<feFlood flood-opacity="0" result="BackgroundImageFix"/>
<feColorMatrix in="SourceAlpha" type="matrix" values="0 0 0 0 0 0 0 0 0 0 0 0 0 0 0 0 0 0 127 0"/>
<feMorphology radius="1" operator="erode" in="SourceAlpha" result="effect1_dropShadow"/>
<feOffset dx="-5" dy="-5"/>
<feGaussianBlur stdDeviation="5.5"/>
<feColorMatrix type="matrix" values="0 0 0 0 1 0 0 0 0 1 0 0 0 0 1 0 0 0 1 0"/>
<feBlend mode="normal" in2="BackgroundImageFix" result="effect1_dropShadow"/>
<feBlend mode="normal" in="SourceGraphic" in2="effect1_dropShadow" result="shape"/>
</filter>
</defs>
</svg>
